# xmcd
#
# Track frame offsets: 
#        150
#        51643
#        75520
#        101409
#        124126
#        147256
#        161582
#        194032
#        221207
#
# Disc length: 3244 seconds
#
# Revision: 2
# Processed by: cddbd v1.5.2PL0 Copyright (c) Steve Scherf et al.
# Submitted via: ExactAudioCopy v0.99pb4
#
DISCID=880caa09
DTITLE=Cynthia Oppermann - upon enchanted ground
DYEAR=2000
DGENRE=Harp
TTITLE0=Introduction et Allegro - Maurice Ravel
TTITLE1=Clair de Lune - Claude Debussy
TTITLE2=Pavane pour une Infante défunte - Maurice Ravel
TTITLE3=Danses pour Harpe: Danse sacrée - Claude Debussy
TTITLE4=Danses pour Harpe: Danse profane - Claude Debussy
TTITLE5=Pièce en Forme de Habanera - Maurice Ravel
TTITLE6=Sonate pour Flûte, Alto et Harpe - Claude Debussy: Pastorale
TTITLE7=Sonate pour Flûte, Alto et Harpe - Claude Debussy: Interlude
TTITLE8=Sonate pour Flûte, Alto et Harpe - Claude Debussy: Final
EXTD=
EXTT0=by M. Ravel in 1905
EXTT1=by C. Debussy in 1890
EXTT2=by M. Ravel in 1899
EXTT3=by C. Debussy in 1904
EXTT4=by C. Debussy in 1904
EXTT5=by M. Ravel in 1907
EXTT6=by C. Debussy in 1915
EXTT7=by C. Debussy in 1915
EXTT8=by C. Debussy in 1915
PLAYORDER=
